<svg width="276" height="55" viewBox="0 0 276 55" fill="none" xmlns="http://www.w3.org/2000/svg">
<rect width="276" height="55" rx="8" fill="#2F80ED"/>
<path d="M59.434 20.58C59.89 20.484 60.376 20.406 60.892 20.346C61.42 20.286 62.002 20.256 62.638 20.256C63.61 20.256 64.42 20.43 65.068 20.778C65.716 21.114 66.196 21.564 66.508 22.128C66.832 22.68 66.994 23.274 66.994 23.91C66.994 24.894 66.754 25.722 66.274 26.394C65.794 27.054 65.134 27.558 64.294 27.906C63.454 28.242 62.5 28.41 61.432 28.41C61.144 28.41 60.856 28.398 60.568 28.374C60.292 28.338 60.034 28.29 59.794 28.23L58.966 33H57.256L59.434 20.58ZM62.458 21.678C62.134 21.678 61.846 21.69 61.594 21.714C61.354 21.738 61.132 21.768 60.928 21.804L60.046 26.79C60.286 26.862 60.544 26.916 60.82 26.952C61.108 26.976 61.39 26.988 61.666 26.988C62.95 26.988 63.88 26.718 64.456 26.178C65.032 25.638 65.32 24.948 65.32 24.108C65.32 23.4 65.068 22.818 64.564 22.362C64.072 21.906 63.37 21.678 62.458 21.678ZM69.2003 29.76C69.1763 29.916 69.1583 30.06 69.1463 30.192C69.1343 30.312 69.1283 30.42 69.1283 30.516C69.1283 30.924 69.2483 31.242 69.4883 31.47C69.7403 31.698 70.0703 31.812 70.4783 31.812C70.6823 31.812 70.8863 31.788 71.0903 31.74C71.2943 31.692 71.4803 31.626 71.6483 31.542L71.8103 32.856C71.5943 32.964 71.3423 33.048 71.0543 33.108C70.7663 33.18 70.4543 33.216 70.1183 33.216C69.3983 33.216 68.7803 33.012 68.2643 32.604C67.7603 32.184 67.5083 31.554 67.5083 30.714C67.5083 30.402 67.5323 30.096 67.5803 29.796L69.3443 19.68H70.9643L69.2003 29.76ZM72.5996 29.31C72.5996 28.146 72.8516 27.126 73.3556 26.25C73.8716 25.362 74.5796 24.672 75.4796 24.18C76.3796 23.676 77.4056 23.424 78.5576 23.424C79.2656 23.424 79.8836 23.496 80.4116 23.64C80.9516 23.784 81.3956 23.928 81.7436 24.072L80.6096 30.462C80.5976 30.522 80.5856 30.594 80.5736 30.678C80.5736 30.75 80.5736 30.828 80.5736 30.912C80.5736 31.248 80.6696 31.488 80.8616 31.632C81.0536 31.764 81.3056 31.83 81.6176 31.83L81.0596 33.09C80.4116 33.09 79.9136 32.934 79.5656 32.622C79.2296 32.298 79.0616 31.8 79.0616 31.128C78.7256 31.704 78.2996 32.196 77.7836 32.604C77.2796 33.012 76.6856 33.216 76.0016 33.216C75.4136 33.216 74.8616 33.06 74.3456 32.748C73.8296 32.424 73.4096 31.974 73.0856 31.398C72.7616 30.81 72.5996 30.114 72.5996 29.31ZM79.9616 25.026C79.7336 24.954 79.4936 24.9 79.2416 24.864C79.0016 24.816 78.7076 24.792 78.3596 24.792C77.5316 24.792 76.8116 24.978 76.1996 25.35C75.5876 25.722 75.1076 26.238 74.7596 26.898C74.4236 27.546 74.2556 28.284 74.2556 29.112C74.2556 29.688 74.3576 30.174 74.5616 30.57C74.7776 30.966 75.0536 31.266 75.3896 31.47C75.7256 31.674 76.0736 31.776 76.4336 31.776C76.9256 31.776 77.3756 31.608 77.7836 31.272C78.1916 30.936 78.5396 30.468 78.8276 29.868C79.1276 29.268 79.3436 28.584 79.4756 27.816L79.9616 25.026ZM90.256 25.53C89.956 25.338 89.632 25.182 89.284 25.062C88.936 24.93 88.552 24.864 88.132 24.864C87.472 24.864 86.89 25.038 86.386 25.386C85.894 25.734 85.51 26.208 85.234 26.808C84.958 27.396 84.82 28.062 84.82 28.806C84.82 29.718 85.048 30.444 85.504 30.984C85.972 31.512 86.596 31.776 87.376 31.776C87.832 31.776 88.234 31.722 88.582 31.614C88.93 31.506 89.248 31.38 89.536 31.236L89.734 32.658C89.434 32.79 89.068 32.916 88.636 33.036C88.216 33.156 87.706 33.216 87.106 33.216C86.326 33.216 85.636 33.042 85.036 32.694C84.448 32.346 83.986 31.86 83.65 31.236C83.326 30.6 83.164 29.862 83.164 29.022C83.164 28.014 83.368 27.09 83.776 26.25C84.196 25.398 84.784 24.714 85.54 24.198C86.308 23.682 87.214 23.424 88.258 23.424C88.822 23.424 89.32 23.496 89.752 23.64C90.196 23.772 90.586 23.94 90.922 24.144L90.256 25.53ZM95.2117 33.216C94.4197 33.216 93.7177 33.048 93.1057 32.712C92.5057 32.364 92.0317 31.872 91.6837 31.236C91.3477 30.588 91.1797 29.826 91.1797 28.95C91.1797 27.954 91.3837 27.036 91.7917 26.196C92.2117 25.356 92.7997 24.684 93.5557 24.18C94.3237 23.676 95.2177 23.424 96.2377 23.424C96.9337 23.424 97.5217 23.556 98.0017 23.82C98.4937 24.084 98.8717 24.426 99.1357 24.846C99.3997 25.266 99.5317 25.716 99.5317 26.196C99.5317 26.856 99.3757 27.402 99.0637 27.834C98.7517 28.266 98.3497 28.602 97.8577 28.842C97.3657 29.07 96.8317 29.232 96.2557 29.328C95.6917 29.424 95.1517 29.472 94.6357 29.472C94.3117 29.472 93.9877 29.46 93.6637 29.436C93.3517 29.4 93.0757 29.364 92.8357 29.328C92.9317 30.12 93.2137 30.726 93.6817 31.146C94.1497 31.566 94.7497 31.776 95.4817 31.776C96.0817 31.776 96.6157 31.698 97.0837 31.542C97.5517 31.386 97.9477 31.23 98.2717 31.074L98.4157 32.514C98.0557 32.682 97.5997 32.844 97.0477 33C96.4957 33.144 95.8837 33.216 95.2117 33.216ZM96.1117 24.792C95.5477 24.792 95.0377 24.936 94.5817 25.224C94.1257 25.5 93.7477 25.884 93.4477 26.376C93.1597 26.856 92.9677 27.408 92.8717 28.032C93.1477 28.08 93.4237 28.122 93.6997 28.158C93.9877 28.182 94.2997 28.194 94.6357 28.194C95.6437 28.194 96.4417 28.056 97.0297 27.78C97.6177 27.492 97.9117 27.006 97.9117 26.322C97.9117 25.902 97.7437 25.542 97.4077 25.242C97.0837 24.942 96.6517 24.792 96.1117 24.792ZM112.25 24.846C111.854 24.846 111.422 24.996 110.954 25.296C110.486 25.596 110.06 26.064 109.676 26.7C109.292 27.324 109.01 28.134 108.83 29.13L108.146 33H106.526L107.552 27.402C107.612 27.114 107.648 26.904 107.66 26.772C107.672 26.628 107.678 26.496 107.678 26.376C107.678 25.908 107.54 25.536 107.264 25.26C107 24.984 106.652 24.846 106.22 24.846C105.8 24.846 105.356 25.002 104.888 25.314C104.42 25.626 103.994 26.112 103.61 26.772C103.226 27.42 102.944 28.254 102.764 29.274L102.116 33H100.496L102.134 23.64H103.7L103.304 25.8C103.664 25.08 104.15 24.504 104.762 24.072C105.386 23.64 106.028 23.424 106.688 23.424C107.432 23.424 108.032 23.652 108.488 24.108C108.944 24.552 109.202 25.116 109.262 25.8C109.67 25.056 110.168 24.474 110.756 24.054C111.356 23.634 112.004 23.424 112.7 23.424C113.504 23.424 114.14 23.676 114.608 24.18C115.088 24.672 115.328 25.278 115.328 25.998C115.328 26.298 115.292 26.676 115.22 27.132L114.176 33H112.556L113.582 27.402C113.642 27.114 113.678 26.904 113.69 26.772C113.702 26.628 113.708 26.496 113.708 26.376C113.708 25.908 113.57 25.536 113.294 25.26C113.03 24.984 112.682 24.846 112.25 24.846ZM120.964 33.216C120.172 33.216 119.47 33.048 118.858 32.712C118.258 32.364 117.784 31.872 117.436 31.236C117.1 30.588 116.932 29.826 116.932 28.95C116.932 27.954 117.136 27.036 117.544 26.196C117.964 25.356 118.552 24.684 119.308 24.18C120.076 23.676 120.97 23.424 121.99 23.424C122.686 23.424 123.274 23.556 123.754 23.82C124.246 24.084 124.624 24.426 124.888 24.846C125.152 25.266 125.284 25.716 125.284 26.196C125.284 26.856 125.128 27.402 124.816 27.834C124.504 28.266 124.102 28.602 123.61 28.842C123.118 29.07 122.584 29.232 122.008 29.328C121.444 29.424 120.904 29.472 120.388 29.472C120.064 29.472 119.74 29.46 119.416 29.436C119.104 29.4 118.828 29.364 118.588 29.328C118.684 30.12 118.966 30.726 119.434 31.146C119.902 31.566 120.502 31.776 121.234 31.776C121.834 31.776 122.368 31.698 122.836 31.542C123.304 31.386 123.7 31.23 124.024 31.074L124.168 32.514C123.808 32.682 123.352 32.844 122.8 33C122.248 33.144 121.636 33.216 120.964 33.216ZM121.864 24.792C121.3 24.792 120.79 24.936 120.334 25.224C119.878 25.5 119.5 25.884 119.2 26.376C118.912 26.856 118.72 27.408 118.624 28.032C118.9 28.08 119.176 28.122 119.452 28.158C119.74 28.182 120.052 28.194 120.388 28.194C121.396 28.194 122.194 28.056 122.782 27.78C123.37 27.492 123.664 27.006 123.664 26.322C123.664 25.902 123.496 25.542 123.16 25.242C122.836 24.942 122.404 24.792 121.864 24.792ZM132.134 24.846C131.714 24.846 131.258 25.002 130.766 25.314C130.274 25.626 129.818 26.112 129.398 26.772C128.99 27.42 128.696 28.254 128.516 29.274L127.868 33H126.248L127.886 23.64H129.452L129.056 25.8C129.428 25.08 129.926 24.504 130.55 24.072C131.186 23.64 131.852 23.424 132.548 23.424C133.364 23.424 134.018 23.676 134.51 24.18C135.002 24.672 135.248 25.278 135.248 25.998C135.248 26.298 135.212 26.676 135.14 27.132L134.114 33H132.494L133.484 27.402C133.544 27.114 133.58 26.904 133.592 26.772C133.604 26.628 133.61 26.496 133.61 26.376C133.61 25.908 133.472 25.536 133.196 25.26C132.932 24.984 132.578 24.846 132.134 24.846ZM137.172 23.982H138.828L139.692 21.03H140.934L140.412 23.982H143.004L142.77 25.386H140.16L139.404 29.76C139.38 29.892 139.362 30.018 139.35 30.138C139.338 30.246 139.332 30.348 139.332 30.444C139.332 30.864 139.458 31.194 139.71 31.434C139.962 31.662 140.292 31.776 140.7 31.776C141.048 31.776 141.342 31.728 141.582 31.632C141.822 31.524 142.038 31.416 142.23 31.308L142.428 32.712C142.2 32.844 141.912 32.958 141.564 33.054C141.228 33.162 140.85 33.216 140.43 33.216C139.986 33.216 139.554 33.126 139.134 32.946C138.726 32.766 138.39 32.484 138.126 32.1C137.862 31.704 137.73 31.194 137.73 30.57C137.73 30.306 137.754 30.012 137.802 29.688L138.54 25.386H136.938L137.172 23.982ZM151.561 20.58C152.101 20.484 152.605 20.406 153.073 20.346C153.553 20.286 154.111 20.256 154.747 20.256C155.659 20.256 156.427 20.4 157.051 20.688C157.675 20.976 158.149 21.366 158.473 21.858C158.797 22.338 158.959 22.872 158.959 23.46C158.959 24.552 158.611 25.374 157.915 25.926C157.219 26.478 156.301 26.838 155.161 27.006C155.653 27.222 156.037 27.492 156.313 27.816C156.589 28.128 156.805 28.458 156.961 28.806C157.117 29.154 157.243 29.496 157.339 29.832C157.447 30.168 157.561 30.474 157.681 30.75C157.801 31.026 157.969 31.248 158.185 31.416C158.413 31.572 158.725 31.65 159.121 31.65L158.491 33.126C157.963 33.126 157.537 33.024 157.213 32.82C156.889 32.616 156.625 32.352 156.421 32.028C156.229 31.692 156.055 31.326 155.899 30.93C155.755 30.522 155.599 30.12 155.431 29.724C155.263 29.316 155.047 28.95 154.783 28.626C154.519 28.29 154.165 28.02 153.721 27.816C153.289 27.612 152.731 27.51 152.047 27.51L151.075 33H149.365L151.561 20.58ZM154.639 21.678C154.327 21.678 154.039 21.69 153.775 21.714C153.523 21.738 153.283 21.774 153.055 21.822L152.299 26.07H153.793C154.849 26.07 155.689 25.854 156.313 25.422C156.949 24.99 157.267 24.408 157.267 23.676C157.267 23.088 157.033 22.608 156.565 22.236C156.109 21.864 155.467 21.678 154.639 21.678ZM164.311 33.216C163.519 33.216 162.817 33.048 162.205 32.712C161.605 32.364 161.131 31.872 160.783 31.236C160.447 30.588 160.279 29.826 160.279 28.95C160.279 27.954 160.483 27.036 160.891 26.196C161.311 25.356 161.899 24.684 162.655 24.18C163.423 23.676 164.317 23.424 165.337 23.424C166.033 23.424 166.621 23.556 167.101 23.82C167.593 24.084 167.971 24.426 168.235 24.846C168.499 25.266 168.631 25.716 168.631 26.196C168.631 26.856 168.475 27.402 168.163 27.834C167.851 28.266 167.449 28.602 166.957 28.842C166.465 29.07 165.931 29.232 165.355 29.328C164.791 29.424 164.251 29.472 163.735 29.472C163.411 29.472 163.087 29.46 162.763 29.436C162.451 29.4 162.175 29.364 161.935 29.328C162.031 30.12 162.313 30.726 162.781 31.146C163.249 31.566 163.849 31.776 164.581 31.776C165.181 31.776 165.715 31.698 166.183 31.542C166.651 31.386 167.047 31.23 167.371 31.074L167.515 32.514C167.155 32.682 166.699 32.844 166.147 33C165.595 33.144 164.983 33.216 164.311 33.216ZM165.211 24.792C164.647 24.792 164.137 24.936 163.681 25.224C163.225 25.5 162.847 25.884 162.547 26.376C162.259 26.856 162.067 27.408 161.971 28.032C162.247 28.08 162.523 28.122 162.799 28.158C163.087 28.182 163.399 28.194 163.735 28.194C164.743 28.194 165.541 28.056 166.129 27.78C166.717 27.492 167.011 27.006 167.011 26.322C167.011 25.902 166.843 25.542 166.507 25.242C166.183 24.942 165.751 24.792 165.211 24.792ZM170.676 23.64C171.924 23.64 172.548 24.18 172.548 25.26V25.638C172.896 24.99 173.346 24.462 173.898 24.054C174.45 23.634 175.092 23.424 175.824 23.424C176.472 23.424 177.036 23.592 177.516 23.928C177.996 24.252 178.362 24.708 178.614 25.296C178.878 25.872 179.01 26.544 179.01 27.312C179.01 28.2 178.878 29.01 178.614 29.742C178.362 30.462 178.014 31.086 177.57 31.614C177.126 32.13 176.628 32.526 176.076 32.802C175.524 33.078 174.954 33.216 174.366 33.216C173.79 33.216 173.25 33.072 172.746 32.784C172.254 32.496 171.87 32.142 171.594 31.722L170.676 36.96H169.056L170.928 26.25C170.964 26.046 170.982 25.878 170.982 25.746C170.982 25.182 170.688 24.9 170.1 24.9L170.676 23.64ZM174.222 31.776C174.786 31.776 175.302 31.596 175.77 31.236C176.25 30.864 176.634 30.354 176.922 29.706C177.21 29.058 177.354 28.314 177.354 27.474C177.354 26.658 177.168 26.016 176.796 25.548C176.424 25.068 175.938 24.828 175.338 24.828C174.858 24.828 174.396 24.978 173.952 25.278C173.52 25.578 173.148 25.998 172.836 26.538C172.524 27.078 172.302 27.714 172.17 28.446L171.846 30.264C172.11 30.744 172.452 31.116 172.872 31.38C173.292 31.644 173.742 31.776 174.222 31.776ZM184.762 33.216C183.874 33.216 183.106 33.036 182.458 32.676C181.81 32.316 181.306 31.818 180.946 31.182C180.598 30.534 180.424 29.802 180.424 28.986C180.424 27.942 180.634 27 181.054 26.16C181.486 25.32 182.086 24.654 182.854 24.162C183.622 23.67 184.528 23.424 185.572 23.424C186.46 23.424 187.228 23.604 187.876 23.964C188.524 24.324 189.022 24.822 189.37 25.458C189.73 26.094 189.91 26.826 189.91 27.654C189.91 28.686 189.7 29.628 189.28 30.48C188.86 31.32 188.26 31.986 187.48 32.478C186.712 32.97 185.806 33.216 184.762 33.216ZM184.816 31.776C185.536 31.776 186.148 31.602 186.652 31.254C187.168 30.894 187.564 30.414 187.84 29.814C188.116 29.214 188.254 28.542 188.254 27.798C188.254 27.246 188.146 26.754 187.93 26.322C187.714 25.878 187.402 25.524 186.994 25.26C186.586 24.996 186.094 24.864 185.518 24.864C184.81 24.864 184.198 25.044 183.682 25.404C183.166 25.752 182.77 26.226 182.494 26.826C182.218 27.426 182.08 28.098 182.08 28.842C182.08 29.382 182.188 29.874 182.404 30.318C182.62 30.762 182.932 31.116 183.34 31.38C183.748 31.644 184.24 31.776 184.816 31.776ZM192.692 26.268C192.704 26.208 192.71 26.142 192.71 26.07C192.722 25.986 192.728 25.902 192.728 25.818C192.728 25.482 192.632 25.248 192.44 25.116C192.248 24.972 191.996 24.9 191.684 24.9L192.242 23.64C192.878 23.64 193.364 23.796 193.7 24.108C194.048 24.408 194.222 24.858 194.222 25.458V25.818C194.57 24.966 195.014 24.354 195.554 23.982C196.106 23.61 196.73 23.424 197.426 23.424C197.702 23.424 197.936 23.448 198.128 23.496C198.332 23.532 198.5 23.58 198.632 23.64L197.912 25.224C197.768 25.164 197.618 25.122 197.462 25.098C197.306 25.074 197.126 25.062 196.922 25.062C196.49 25.062 196.058 25.218 195.626 25.53C195.206 25.83 194.822 26.334 194.474 27.042C194.138 27.75 193.862 28.722 193.646 29.958L193.124 33H191.504L192.692 26.268ZM199.205 23.982H200.861L201.725 21.03H202.967L202.445 23.982H205.037L204.803 25.386H202.193L201.437 29.76C201.413 29.892 201.395 30.018 201.383 30.138C201.371 30.246 201.365 30.348 201.365 30.444C201.365 30.864 201.491 31.194 201.743 31.434C201.995 31.662 202.325 31.776 202.733 31.776C203.081 31.776 203.375 31.728 203.615 31.632C203.855 31.524 204.071 31.416 204.263 31.308L204.461 32.712C204.233 32.844 203.945 32.958 203.597 33.054C203.261 33.162 202.883 33.216 202.463 33.216C202.019 33.216 201.587 33.126 201.167 32.946C200.759 32.766 200.423 32.484 200.159 32.1C199.895 31.704 199.763 31.194 199.763 30.57C199.763 30.306 199.787 30.012 199.835 29.688L200.573 25.386H198.971L199.205 23.982Z" fill="white"/>
<g clip-path="url(#clip0_0_1373)">
<path d="M219.574 27.5L215.037 22.9625L216.333 21.6664L222.167 27.5L216.333 33.3337L215.037 32.0375L219.574 27.5Z" fill="white"/>
</g>
<defs>
<clipPath id="clip0_0_1373">
<rect width="22" height="22" fill="white" transform="translate(207.5 16.5)"/>
</clipPath>
</defs>
</svg>
